<?xml version="1.0" standalone="no"?><!DOCTYPE svg PUBLIC "-//W3C//DTD SVG 1.1//EN" "http://www.w3.org/Graphics/SVG/1.1/DTD/svg11.dtd"><svg t="1725438772441" class="icon" viewBox="0 0 1024 1024" version="1.1" xmlns="http://www.w3.org/2000/svg" p-id="4323" xmlns:xlink="http://www.w3.org/1999/xlink" width="200" height="200"><path d="M504.32 509.5936m-450.816 0a450.816 450.816 0 1 0 901.632 0 450.816 450.816 0 1 0-901.632 0Z" fill="#FFE3DB" p-id="4324"></path><path d="M756.3264 230.4512s-0.0512 0 0 0c-4.0448-27.904-21.8112-34.0992-47.2576-34.7648-137.9328-3.6864-245.6576 51.3024-325.9904 163.2768-12.2368 17.1008-30.2592 32.5632-49.0496 41.984-60.9792 30.5152-106.5472 75.3664-135.8848 136.3968-3.6864 7.68-2.6112 21.6064 2.2528 28.2112 3.5328 4.8128 17.664 4.864 25.856 2.6624 24.064-6.4 47.2576-16.5888 71.5264-21.9136 8.5504-1.8944 21.1456 3.84 28.672 9.984 40.192 32.9728 75.4688 74.0352 119.8592 99.2768 56.2176 31.9488 68.7104 72.0896 52.8896 129.5872-2.4064 8.8576 1.9456 25.6 8.448 29.2352 6.7584 3.7376 22.1184-1.1776 29.8496-7.2704 50.0736-39.3728 83.6608-90.88 97.9456-152.576 6.8608-29.7472 21.4528-51.5584 40.8576-73.7792 37.7344-43.264 62.3104-82.3808 75.9808-130.6112l0.2048-0.2048c32.5632-95.1296 3.84-219.4944 3.84-219.4944z m-179.4048 264.8064c-42.6496 5.0688-77.0048-22.8352-81.8176-66.5088-4.6592-41.9328 23.7568-79.5136 64.4608-85.248 40.5504-5.7344 80.8448 26.0096 85.8112 67.5328 5.12 42.752-24.3712 79.0016-68.4544 84.224z" fill="#F23D4F" p-id="4325"></path><path d="M404.8896 727.9104c16.9472-20.992 7.0656-62.2592-16.384-81.2032-0.1024-0.0512-0.2048-0.1024-0.256-0.2048-0.1024-0.0512-0.1536-0.1536-0.256-0.2048-23.5008-18.9952-65.8944-19.9168-82.8416 1.024-18.5856 22.9888-38.0416 79.616-49.2544 122.1632-6.0416 22.9376 19.3536 43.3152 40.448 32.4608 39.5264-20.3264 90.88-52.1216 108.544-74.0352z" fill="#F23D4F" p-id="4326"></path><path d="M388.5056 646.7072c-0.1024-0.0512-0.2048-0.1024-0.256-0.2048-0.1024-0.0512-0.1536-0.1536-0.256-0.2048-23.5008-18.9952-65.8944-19.9168-82.8416 1.024-11.6224 14.3872-23.6032 41.9328-33.6896 71.0144a341.6576 341.6576 0 0 0 119.3472 21.4528c0.8192 0 1.6384-0.0512 2.5088-0.0512 4.6592-4.1472 8.6528-8.0896 11.6224-11.776 16.896-21.0432 7.0656-62.3104-16.4352-81.2544z" fill="#FC4956" p-id="4327"></path><path d="M666.9824 196.5056c-117.9648 7.6288-211.9168 62.1568-283.904 162.4576-12.2368 17.1008-30.2592 32.5632-49.0496 41.984-60.9792 30.5152-106.5472 75.3664-135.8848 136.3968-3.6864 7.68-2.6112 21.6064 2.2528 28.2112 3.5328 4.8128 17.664 4.864 25.856 2.6624 24.064-6.4 47.2576-16.5888 71.5264-21.9136 8.5504-1.8944 21.1456 3.84 28.672 9.984 40.192 32.9728 75.4688 74.0352 119.8592 99.2768 32.4608 18.432 50.2272 39.6288 56.5248 65.28a342.65088 342.65088 0 0 0 142.6432-95.0272c7.7312-16.3328 18.2784-30.6176 30.8736-45.056 3.84-4.4032 7.5264-8.7552 11.1104-13.1072 28.672-50.0224 45.1584-107.9296 45.1584-169.728 0.0512-75.3664-24.3712-144.9472-65.6384-201.4208z m-90.0608 298.752c-42.6496 5.0688-77.0048-22.8352-81.8176-66.5088-4.6592-41.9328 23.7568-79.5136 64.4608-85.248 40.5504-5.7344 80.8448 26.0096 85.8112 67.5328 5.12 42.752-24.3712 79.0016-68.4544 84.224z" fill="#FC4956" p-id="4328"></path><path d="M383.0784 358.9632c-12.2368 17.1008-30.2592 32.5632-49.0496 41.984-60.9792 30.5152-106.5472 75.3664-135.8848 136.3968-3.6864 7.68-2.6112 21.6064 2.2528 28.2112 3.5328 4.8128 17.664 4.864 25.856 2.6624 24.064-6.4 47.2576-16.5888 71.5264-21.9136 8.5504-1.8944 21.1456 3.84 28.672 9.984 19.5584 16.0256 37.9392 33.9968 56.7808 51.1488 70.0928-18.176 131.4304-58.0096 176.4864-111.9744-34.4064-3.2256-60.5184-29.0816-64.6656-66.6624-4.6592-41.9328 23.7568-79.5136 64.4608-85.248 25.088-3.5328 50.1248 7.2704 66.7136 25.9072a341.4528 341.4528 0 0 0 12.9024-92.928c0-26.1632-3.0208-51.5584-8.6016-76.032-101.0176 15.616-183.04 68.7104-247.4496 158.464z" fill="#FF5C64" p-id="4329"></path><path d="M383.0784 358.9632c-12.2368 17.1008-30.2592 32.5632-49.0496 41.984-46.6944 23.3984-84.3264 55.1936-112.5376 96.1536 160.8192-4.7104 293.7856-120.3712 324.8128-273.152-63.5392 26.5728-117.76 71.6288-163.2256 135.0144z" fill="#FF716E" p-id="4330"></path></svg>