<?xml version="1.0" standalone="no"?><!DOCTYPE svg PUBLIC "-//W3C//DTD SVG 1.1//EN" "http://www.w3.org/Graphics/SVG/1.1/DTD/svg11.dtd"><svg t="1725438891626" class="icon" viewBox="0 0 1024 1024" version="1.1" xmlns="http://www.w3.org/2000/svg" p-id="6394" xmlns:xlink="http://www.w3.org/1999/xlink" width="200" height="200"><path d="M746.666667 85.333333H341.333333c-70.613333 0-128 57.386667-128 128v64H181.333333c-17.706667 0-32 14.293333-32 32S163.626667 341.333333 181.333333 341.333333H213.333333v138.666667H181.333333c-17.706667 0-32 14.293333-32 32s14.293333 32 32 32H213.333333V682.666667H181.333333c-17.706667 0-32 14.293333-32 32S163.626667 746.666667 181.333333 746.666667H213.333333v64c0 70.613333 57.386667 128 128 128h405.333334c70.613333 0 128-57.386667 128-128V213.333333c0-70.613333-57.386667-128-128-128zM341.333333 874.666667c-35.2 0-64-28.8-64-64v-64h32c17.706667 0 32-14.293333 32-32s-14.293333-32-32-32H277.333333v-138.666667h32c17.706667 0 32-14.293333 32-32s-14.293333-32-32-32H277.333333V341.333333h32c17.706667 0 32-14.293333 32-32s-14.293333-32-32-32H277.333333v-64c0-35.2 28.8-64 64-64h320v725.333334H341.333333z m469.333334-64c0 35.2-28.8 64-64 64h-21.333334V149.333333h21.333334c35.2 0 64 28.8 64 64v597.333334z" p-id="6395"></path><path d="M569.173333 262.826667c-6.186667-6.186667-14.506667-9.386667-22.613333-9.386667s-16.426667 3.2-22.613333 9.386667l-22.613334 22.613333-22.613333-22.613333c-6.186667-6.186667-14.506667-9.386667-22.613333-9.386667s-16.426667 3.2-22.613334 9.386667a31.786667 31.786667 0 0 0 0 45.226666l22.613334 22.613334-22.613334 22.613333a31.786667 31.786667 0 0 0 0 45.226667c3.2 3.2 6.826667 5.546667 10.666667 7.04s7.893333 2.346667 11.946667 2.346666c4.053333 0 8.106667-0.853333 11.946666-2.346666 3.84-1.493333 7.466667-3.84 10.666667-7.04l22.613333-22.613334 22.613334 22.613334c3.2 3.2 6.826667 5.546667 10.666666 7.04s7.893333 2.346667 11.946667 2.346666 8.106667-0.853333 11.946667-2.346666c3.84-1.493333 7.466667-3.84 10.666666-7.04 12.586667-12.586667 12.586667-32.853333 0-45.226667l-22.613333-22.613333 22.613333-22.613334c12.586667-12.586667 12.586667-32.853333 0-45.226666zM569.173333 625.493333c-6.186667-6.186667-14.506667-9.386667-22.613333-9.386666s-16.426667 3.2-22.613333 9.386666l-22.613334 22.613334-22.613333-22.613334c-6.186667-6.186667-14.506667-9.386667-22.613333-9.386666s-16.426667 3.2-22.613334 9.386666a31.786667 31.786667 0 0 0 0 45.226667l22.613334 22.613333-22.613334 22.613334a31.786667 31.786667 0 0 0 0 45.226666c3.2 3.2 6.826667 5.546667 10.666667 7.04s7.893333 2.346667 11.946667 2.346667c4.053333 0 8.106667-0.853333 11.946666-2.346667 3.84-1.493333 7.466667-3.84 10.666667-7.04l22.613333-22.613333 22.613334 22.613333c3.2 3.2 6.826667 5.546667 10.666666 7.04s7.893333 2.346667 11.946667 2.346667 8.106667-0.853333 11.946667-2.346667c3.84-1.493333 7.466667-3.84 10.666666-7.04 12.586667-12.586667 12.586667-32.853333 0-45.226666l-22.613333-22.613334 22.613333-22.613333c12.586667-12.586667 12.586667-32.853333 0-45.226667z" p-id="6396"></path></svg>